<!--?xml version="1.0" encoding="utf-8"?-->
<!-- Svg Vector Icons : http://www.onlinewebfonts.com/icon -->

<svg version="1.1" xmlns="http://www.w3.org/2000/svg" xmlns:xlink="http://www.w3.org/1999/xlink" x="0px" y="0px" viewBox="0 0 256 256" enable-background="new 0 0 256 256" xml:space="preserve">
<metadata> Svg Vector Icons : http://www.onlinewebfonts.com/icon </metadata>
<g><g><g><path fill="#f0e102" data-title="Layer 0" xs="0" d="M119.4,10.3C69.5,13.8,26.4,49.5,13.8,98c-4.9,19-5.1,40.2-0.2,59.1c3.1,12.4,9,25.6,16.1,36.2c38,56.9,115.3,69.9,169.9,28.6c6.2-4.7,17.6-16.1,22.3-22.3C257.1,153,253.4,88.2,213,46.3C188.6,20.8,154.6,7.8,119.4,10.3z M131.6,73.5c1.1,0.8,2.2,2.1,2.5,3.2c0.5,1.7,0.8,1.9,3.9,2.2c10.2,1,19.1,8.1,23.4,18.7c1.3,3.3,1.4,4.2,1.7,27.5c0.2,13.3,0.4,24.2,0.5,24.2c3.2,3.6,4,4.3,5.3,4.3c1.8,0,3.7,1,5.1,2.6c0.8,0.9,1.1,2.4,1.1,5.5v4.3h-46.7H81.6v-4.2c0-4,0.1-4.3,2-6.2c1.4-1.4,2.6-2,3.7-2c2,0,3.8-1.5,5.4-4.3c1-1.7,1.1-4.5,1.4-25.7c0.4-26.1,0.4-25.9,4.2-31.9c4.6-7.3,14-13,21.4-13c2,0,2.3-0.2,3.2-2.4c0.7-1.7,1.5-2.7,2.9-3.3C128.4,71.8,129.3,71.9,131.6,73.5z M140.5,173.2c0,1.8-1.6,5.4-3.2,7c-3.6,3.9-9.9,4.8-14.8,2.3c-2.9-1.5-5.6-5.3-6.2-8.6L116,172h12.3C140.1,172,140.5,172.1,140.5,173.2z"/></g></g></g>
</svg>